# xmcd
#
# Track frame offsets:
#	150
#	4998
#	25379
#	52529
#	72774
#	91008
#	95101
#	114070
#	137878
#	155301
#	181830
#
# Disc length: 2657 seconds
#
# Revision: 0
# Processed by: cddbd v1.5.2PL0 Copyright (c) Steve Scherf et al.
# Submitted via: EasyCDDAExtractor 12.1.0.1
#
DISCID=7c0a5f0b
DTITLE=MFSB - Philadelphia Freedom Summertime Disc 1
DYEAR=2010
DGENRE=Soul
TTITLE0=Zack's Fanfare #2
TTITLE1=Get Down With The Philly Souind
TTITLE2=Philadelphia Freedom
TTITLE3=South Philly
TTITLE4=Ferry Avenue
TTITLE5=Interlude 1
TTITLE6=When Your Love is Gone
TTITLE7=Morning Tears
TTITLE8=Brothers and Sisters
TTITLE9=Smile Happy
TTITLE10=The Zip
EXTD=
EXTT0=
EXTT1=
EXTT2=
EXTT3=
EXTT4=
EXTT5=
EXTT6=
EXTT7=
EXTT8=
EXTT9=
EXTT10=
PLAYORDER=
